<svg width="192" height="44" viewBox="0 0 192 44" fill="none" xmlns="http://www.w3.org/2000/svg">
<path d="M13.1902 43.385C17.0402 43.385 19.8452 41.9 21.5502 39.755L21.2202 39.425C19.6252 41.35 17.2052 42.67 14.0702 42.67C8.51518 42.67 4.72018 39.205 4.72018 29.745C4.72018 20.56 8.79017 17.37 13.3552 17.37C15.3352 17.37 16.3252 17.92 16.7652 19.185C17.3702 20.945 17.5902 22.21 19.2402 22.21C20.5602 22.21 21.1652 21.22 21.1652 20.285C21.1652 17.975 16.8202 16.875 13.3002 16.875C7.30517 16.875 0.430176 21.935 0.430176 30.02C0.430176 38.38 6.48018 43.385 13.1902 43.385ZM35.545 43.495C41.0451 43.495 47.865 38.82 47.865 30.295C47.865 21.77 41.0451 16.82 35.545 16.82C30.1 16.82 23.28 21.77 23.28 30.295C23.28 38.82 30.1 43.495 35.545 43.495ZM35.545 43.055C31.365 43.055 27.68 39.81 27.68 30.295C27.68 20.835 31.365 17.26 35.545 17.26C39.7801 17.26 43.4651 20.835 43.4651 30.295C43.4651 39.81 39.7801 43.055 35.545 43.055ZM53.7844 24.08C55.3244 24.08 56.4794 22.925 56.4794 21.385C56.4794 19.9 55.3244 18.69 53.7844 18.69C52.2444 18.69 51.0894 19.9 51.0894 21.385C51.0894 22.925 52.2444 24.08 53.7844 24.08ZM53.7844 43.55C55.3244 43.55 56.4794 42.45 56.4794 40.91C56.4794 39.37 55.3244 38.215 53.7844 38.215C52.2444 38.215 51.0894 39.37 51.0894 40.91C51.0894 42.45 52.2444 43.55 53.7844 43.55ZM60.0508 43H68.7958V42.615C66.4308 42.01 66.3758 41.24 66.3758 34.585V23.475L68.1908 21.825C71.4908 18.8 73.4708 17.865 75.2311 17.865C77.4311 17.865 78.8061 19.185 78.8061 22.705V34.585C78.8061 41.24 78.6961 42.01 76.3311 42.615V43H85.1311V42.615C82.9311 42.01 82.9311 41.24 82.9311 34.585V23.585C82.9311 18.855 80.5111 16.93 76.4411 16.93C73.8558 16.93 71.3258 18.25 68.1908 21.165L66.3758 22.815V0.320007L59.9958 3.56501V3.95001C62.2508 4.06001 62.2508 4.22501 62.2508 10.66V34.585C62.2508 41.24 62.1958 42.01 60.0508 42.615V43ZM100.45 43.44C104.245 43.44 106.83 42.175 108.755 40.635L108.425 40.25C106.61 41.68 104.3 42.725 101.33 42.725C96.2151 42.725 91.7051 39.645 91.7051 29.8C91.7051 28.04 91.8701 26.5 92.0901 25.18H108.975C107.875 19.24 103.695 16.82 99.2401 16.82C94.0701 16.82 87.3601 21.385 87.3601 29.965C87.3601 39.095 94.0151 43.44 100.45 43.44ZM99.2401 17.315C102.1 17.315 104.905 18.965 105.235 24.63H92.2001C93.4651 19.075 96.6551 17.315 99.2401 17.315ZM111.167 43H120.022V42.615C117.547 42.01 117.492 41.24 117.492 34.585V24.19L120.297 21.165C121.232 20.12 121.617 19.79 122.442 19.79C123.597 19.79 124.422 20.835 125.797 20.835C126.842 20.835 127.557 20.01 127.557 18.965C127.557 17.92 127.062 17.04 125.522 17.04C123.652 17.04 122.552 18.085 120.297 20.505L117.492 23.53V16.82L111.112 20.23V20.67C113.367 20.89 113.367 21.055 113.367 28.15V34.585C113.367 41.24 113.312 42.01 111.167 42.615V43ZM141.147 43.44C144.942 43.44 147.527 42.175 149.452 40.635L149.122 40.25C147.307 41.68 144.997 42.725 142.027 42.725C136.912 42.725 132.402 39.645 132.402 29.8C132.402 28.04 132.567 26.5 132.787 25.18H149.672C148.572 19.24 144.392 16.82 139.937 16.82C134.767 16.82 128.057 21.385 128.057 29.965C128.057 39.095 134.712 43.44 141.147 43.44ZM139.937 17.315C142.797 17.315 145.602 18.965 145.932 24.63H132.897C134.162 19.075 137.352 17.315 139.937 17.315Z" fill="black"/>
<path d="M182.768 31.1333H168.01C170.049 34.7141 173.782 38.2987 179.116 41.794C179.234 41.8712 179.368 41.9098 179.502 41.9098C179.637 41.9098 179.771 41.8712 179.889 41.794C185.223 38.2988 188.956 34.7141 190.995 31.1333H182.768Z" fill="#FFE818"/>
<path fill-rule="evenodd" clip-rule="evenodd" d="M188.048 31.1728H191.016C192.273 28.3746 192.108 26.1655 191.709 24.7516C190.899 21.8841 188.25 19.8812 185.267 19.8812C184.85 19.8812 184.424 19.9198 184.001 19.996C182.285 20.3055 180.889 21.2148 179.963 22.6257C179.791 22.8885 179.636 23.1683 179.5 23.4604C179.364 23.1683 179.209 22.8885 179.037 22.6257C178.111 21.2148 176.715 20.3055 174.999 19.996C174.576 19.9198 174.15 19.8812 173.733 19.8812C170.75 19.8812 168.101 21.884 167.291 24.7516C166.892 26.1655 166.727 28.3745 167.984 31.1728H172.22V31.1754H188.048V31.1728Z" fill="#41A4FF"/>
</svg>
